<!-- Generated art. Do not edit: change the design source and re-run the extractor. -->
<svg xmlns="http://www.w3.org/2000/svg" width="93" height="67" viewBox="0 0 93 67">
  <g id="polygon" >
    <path d="M 50.3 50.52 C 37 65.43 30.79 62.95 31.67 43.08 C 13.23 35.17 13.7 28.55 33.06 23.24 C 34.96 3.43 41.45 1.83 52.54 18.42 C 72.15 14.09 75.71 19.71 63.2 35.27 C 73.42 52.4 69.12 57.48 50.3 50.52 Z" fill="#574935"/>
    <path d="M 74.94 17.77 C 68.27 13.21 68.99 10.78 77.08 10.46 C 81.68 3.86 84.14 4.57 84.46 12.58 C 91.12 17.14 90.41 19.57 82.31 19.89 C 77.71 26.49 75.25 25.78 74.94 17.77 Z" fill="#574935"/>
    <path d="M 16.85 58.08 C 10.98 62.95 8.92 61.69 10.66 54.31 C 5.74 48.5 7.01 46.45 14.47 48.18 C 20.34 43.31 22.4 44.57 20.66 51.95 C 25.58 57.76 24.31 59.81 16.85 58.08 Z" fill="#574935"/>
    <path d="M 6.02 39.34 C 1.66 36.6 2.05 35.02 7.21 34.63 C 9.99 30.31 11.57 30.7 11.97 35.81 C 16.33 38.56 15.94 40.13 10.78 40.52 C 8 44.84 6.42 44.45 6.02 39.34 Z" fill="#574935"/>
  </g>
</svg>
