<!-- Generated art. Do not edit: change the design source and re-run the extractor. -->
<svg xmlns="http://www.w3.org/2000/svg" width="25" height="25" viewBox="0 0 25 25">
  <g id="roundrect-5" >
    <path d="M 4 10 L 22 10 C 23.1 10 24 10.9 24 12 L 24 14 C 24 15.1 23.1 16 22 16 L 4 16 C 2.9 16 2 15.1 2 14 L 2 12 C 2 10.9 2.9 10 4 10 Z" fill="#644933"/>
    <path d="M 16 4 L 16 22 C 16 23.1 15.1 24 14 24 L 12 24 C 10.9 24 10 23.1 10 22 L 10 4 C 10 2.9 10.9 2 12 2 L 14 2 C 15.1 2 16 2.9 16 4 Z" fill="#644933"/>
  </g>
</svg>
